<svg width="100" height="100" viewBox="0 0 100 100" fill="none" xmlns="http://www.w3.org/2000/svg">
<path fill-rule="evenodd" clip-rule="evenodd" d="M50 100C77.6142 100 100 77.6142 100 50C100 22.3858 77.6142 0 50 0C22.3858 0 0 22.3858 0 50C0 77.6142 22.3858 100 50 100ZM50 96.9422C24.0745 96.9422 3.05781 75.9255 3.05781 50C3.05781 24.0745 24.0745 3.05781 50 3.05781C75.9255 3.05781 96.9422 24.0745 96.9422 50C96.9422 75.9255 75.9255 96.9422 50 96.9422ZM49.8927 20H30V79.8153H37.9653V26.4909H49.8927C52.9468 26.4909 55.4368 26.9702 57.3628 27.9288C59.3163 28.86 60.747 30.1883 61.655 31.9138C62.563 33.6392 63.0169 35.6522 63.0169 37.9528C63.0169 40.0069 62.5354 41.883 61.5724 43.581C60.6095 45.2791 59.1787 46.6348 57.2802 47.6482C55.3818 48.6341 51.5528 49.1271 48.6914 49.1271L50.5118 52.7012L62.1218 79.8153H70.6236V79.3224L59.3867 53.9676C61.2904 53.2566 62.982 52.3415 64.4614 51.2223C66.5525 49.6338 68.1483 47.7166 69.2489 45.4708C70.377 43.1976 70.941 40.6916 70.941 37.9528C70.941 34.0637 70.1156 30.7909 68.4647 28.1342C66.8414 25.4502 64.4614 23.4235 61.3248 22.0541C58.2157 20.6847 54.405 20 49.8927 20Z" fill="#F9F9F9"/>
</svg>
